<?xml version="1.0" standalone="no"?>
<!DOCTYPE svg PUBLIC "-//W3C//DTD SVG 20010904//EN"
 "http://www.w3.org/TR/2001/REC-SVG-20010904/DTD/svg10.dtd">
<svg version="1.0" xmlns="http://www.w3.org/2000/svg"
 width="300.000000pt" height="168.000000pt" viewBox="0 0 300.000000 168.000000"
 preserveAspectRatio="xMidYMid meet">

<g transform="translate(0.000000,168.000000) scale(0.100000,-0.100000)"
fill="#000000" stroke="none">
<path d="M210 1669 c0 -5 5 -7 10 -4 6 3 10 8 10 11 0 2 -4 4 -10 4 -5 0 -10
-5 -10 -11z"/>
<path d="M268 1673 c12 -2 30 -2 40 0 9 3 -1 5 -23 4 -22 0 -30 -2 -17 -4z"/>
<path d="M481 1664 c0 -11 3 -14 6 -6 3 7 2 16 -1 19 -3 4 -6 -2 -5 -13z"/>
<path d="M665 1670 c4 -6 11 -8 16 -5 14 9 11 15 -7 15 -8 0 -12 -5 -9 -10z"/>
<path d="M2030 1653 c0 -15 5 -51 12 -79 11 -48 14 -52 47 -58 19 -3 39 -2 45
2 6 3 19 5 30 3 11 -2 16 1 11 9 -4 6 -4 27 0 46 5 27 13 38 36 46 19 6 29 17
29 30 0 10 -4 16 -10 13 -5 -3 -10 -1 -10 4 0 7 -35 11 -95 11 l-95 0 0 -27z
m26 -51 c-11 -10 -15 4 -8 28 l7 25 3 -23 c2 -13 1 -26 -2 -30z m34 -18 c0 -8
-4 -12 -10 -9 -5 3 -10 10 -10 16 0 5 5 9 10 9 6 0 10 -7 10 -16z"/>
<path d="M2700 1675 c0 -5 5 -17 10 -25 5 -8 10 -10 10 -5 0 6 -5 17 -10 25
-5 8 -10 11 -10 5z"/>
<path d="M2738 1650 c-10 -17 -22 -29 -27 -26 -5 3 -7 -2 -4 -12 3 -12 -4 -23
-21 -32 -26 -13 -38 -60 -16 -60 6 0 10 4 10 8 0 5 6 9 13 9 7 0 25 3 40 7 26
6 27 5 27 -34 0 -30 -3 -39 -12 -34 -8 5 -7 1 2 -10 13 -16 12 -20 -8 -36 -14
-11 -22 -29 -22 -47 l1 -28 13 31 c19 44 31 48 66 23 23 -18 30 -31 30 -56 0
-20 8 -43 20 -55 23 -25 27 -12 6 18 -10 13 -11 25 -5 35 11 18 12 32 0 25
-14 -9 -22 23 -11 44 6 10 10 30 10 44 0 14 3 25 8 24 14 -4 52 23 52 37 0 8
4 15 10 15 5 0 25 14 45 31 31 27 36 37 33 68 l-3 36 -120 3 -120 2 -17 -30z
m77 -160 c-3 -5 2 -10 12 -11 14 0 12 -3 -6 -10 -29 -12 -38 -5 -21 16 14 17
25 20 15 5z"/>
<path d="M320 1640 c0 -19 3 -21 12 -12 9 9 9 15 0 24 -9 9 -12 7 -12 -12z"/>
<path d="M90 1590 c0 -5 5 -10 10 -10 6 0 10 5 10 10 0 6 -4 10 -10 10 -5 0
-10 -4 -10 -10z"/>
<path d="M2977 1562 c-24 -26 -22 -51 3 -45 14 4 20 14 20 34 0 34 -2 35 -23
11z"/>
<path d="M2020 1530 c0 -5 5 -10 10 -10 6 0 10 5 10 10 0 6 -4 10 -10 10 -5 0
-10 -4 -10 -10z"/>
<path d="M1990 1490 c-13 -9 -13 -11 0 -20 9 -6 18 -6 24 0 15 15 -6 31 -24
20z"/>
<path d="M2950 1417 c-19 -18 -45 -40 -58 -49 l-23 -16 20 -33 c15 -25 17 -37
9 -52 -8 -16 -12 -17 -19 -6 -7 12 -9 12 -9 0 0 -12 -3 -12 -12 -3 -16 16 -28
15 -28 -2 0 -8 -5 -18 -11 -22 -7 -4 -10 -1 -7 7 3 8 -6 22 -20 33 -16 13 -22
26 -19 42 2 12 0 29 -4 36 -6 9 -9 10 -9 1 0 -7 -6 -10 -14 -7 -18 7 -58 -53
-80 -121 l-15 -50 5 50 c4 31 14 59 27 72 27 30 17 39 -16 13 -28 -22 -55 -93
-59 -154 l-2 -38 -46 5 c-43 5 -44 5 -10 -5 19 -5 42 -13 50 -17 9 -5 22 -1
34 11 11 10 31 18 45 18 21 0 23 -2 11 -11 -12 -8 -11 -9 5 -6 11 2 19 7 18
13 0 5 25 9 56 10 l57 0 -40 -20 c-37 -19 -41 -25 -44 -61 -4 -60 -13 -76 -23
-40 -5 19 -5 32 3 36 6 4 9 12 7 18 -5 15 -94 -43 -103 -66 -4 -8 -1 -22 5
-29 14 -17 5 -44 -16 -44 -16 0 -62 -87 -51 -97 5 -5 69 36 74 49 2 4 15 24
28 44 14 20 24 44 23 53 -4 43 5 62 10 21 5 -36 2 -51 -16 -79 -33 -49 -30
-121 6 -121 14 0 14 -2 1 -10 -10 -6 -11 -10 -2 -10 17 0 15 -22 -3 -46 -15
-18 -15 -18 -9 9 10 44 -9 31 -32 -22 l-22 -49 28 -49 c16 -28 40 -58 55 -67
15 -10 24 -23 21 -31 -3 -9 5 -16 24 -20 17 -4 32 -11 35 -16 4 -5 21 -9 38
-9 18 0 39 -5 47 -10 11 -7 -2 -10 -45 -11 -75 -1 -123 -17 -54 -18 25 -1 87
-4 137 -7 l92 -7 0 97 c0 75 -3 96 -12 90 -10 -6 -10 -4 0 7 6 7 12 34 12 60
0 41 -2 47 -19 42 -13 -3 -17 -11 -13 -25 3 -15 1 -19 -9 -16 -8 3 -15 15 -15
27 -1 12 -5 25 -9 29 -5 4 -5 -2 -1 -13 5 -15 4 -17 -5 -8 -6 6 -12 31 -14 55
-1 23 -1 31 2 17 4 -23 9 -27 44 -27 l39 -1 0 345 c0 189 -3 344 -7 344 -5 0
-24 -15 -43 -33z m-77 -191 c19 7 23 -6 6 -23 -13 -13 -42 -6 -33 8 3 5 0 9
-6 9 -6 0 -8 5 -4 11 5 8 8 8 14 0 3 -7 14 -9 23 -5z m-63 -141 c0 -2 -14 -12
-31 -21 -17 -8 -28 -11 -24 -4 4 6 17 15 29 20 27 11 26 11 26 5z m-30 -75
c-11 -20 -30 -28 -30 -12 0 11 22 32 32 32 5 0 4 -9 -2 -20z m-100 -36 c0 -25
-25 -14 -26 11 -2 21 1 24 12 14 8 -6 14 -18 14 -25z m253 -59 c-44 -53 -66
-61 -27 -10 22 30 49 53 62 55 2 0 -14 -20 -35 -45z m-164 8 c-6 -7 -17 -13
-23 -12 -7 0 -6 2 2 6 6 2 10 8 8 12 -3 4 1 8 9 8 11 0 12 -4 4 -14z m98 -39
c-3 -3 -12 -4 -19 -1 -8 3 -5 6 6 6 11 1 17 -2 13 -5z m88 -44 c-3 -5 -13 -10
-21 -10 -8 0 -12 5 -9 10 3 6 13 10 21 10 8 0 12 -4 9 -10z"/>
<path d="M982 981 l3 -461 -130 -51 c-71 -28 -134 -55 -138 -59 -4 -4 27 -10
70 -14 134 -11 163 -19 156 -46 -5 -20 -29 -34 -44 -24 -5 3 -12 -2 -15 -10
-3 -9 -17 -16 -29 -16 -13 0 -25 -5 -27 -10 -2 -7 -27 -8 -68 -3 -54 6 -60 8
-35 14 17 4 22 7 12 8 -10 0 -30 14 -44 31 -13 16 -33 30 -44 30 -10 0 -18 5
-16 11 1 6 -4 14 -12 17 -9 3 -11 0 -6 -8 5 -9 4 -11 -4 -6 -13 9 -191 -54
-191 -67 0 -4 12 -12 26 -18 26 -9 26 -10 9 -23 -17 -12 -9 -14 66 -20 46 -4
118 -11 159 -17 41 -5 152 -18 245 -29 94 -11 181 -22 195 -24 14 -3 68 -10
120 -16 52 -6 120 -15 150 -20 30 -5 102 -14 160 -20 58 -7 135 -19 172 -27
92 -21 131 -14 216 41 40 25 72 43 72 38 0 -4 4 -2 8 4 15 22 141 84 159 78
14 -5 15 -4 4 4 -11 8 -8 13 15 25 16 8 35 12 41 10 10 -4 13 31 13 151 0 155
0 157 24 167 23 11 23 14 30 202 3 106 9 274 13 374 l6 182 -34 5 c-19 3 -124
8 -234 11 -266 8 -878 33 -988 40 l-87 7 2 -461z m78 369 c0 -23 -25 -27 -33
-6 -7 16 1 26 20 26 7 0 13 -9 13 -20z m68 -2 c-5 -34 -38 -37 -38 -4 0 20 5
26 21 26 15 0 20 -5 17 -22z m-73 -111 c0 -26 -20 -25 -23 2 -3 16 1 22 10 19
7 -3 13 -12 13 -21z m73 -5 c3 -17 -2 -22 -17 -22 -14 0 -21 6 -21 18 0 38 33
41 38 4z m263 0 c-13 -2 -27 0 -32 5 -6 6 3 7 23 4 28 -4 29 -6 9 -9z m144
-102 c22 -11 56 -20 75 -20 67 -1 6 -20 -72 -22 -79 -2 -139 6 -206 28 -23 8
-59 15 -80 16 l-37 1 45 7 c25 4 88 8 140 8 75 1 103 -3 135 -18z m-475 -10
c0 -11 -5 -20 -11 -20 -5 0 -8 4 -4 9 3 5 1 12 -4 15 -5 4 -12 -2 -14 -11 -4
-14 -5 -13 -6 5 -1 16 5 22 19 22 13 0 20 -7 20 -20z m265 -23 l60 -15 -52 -1
c-56 -1 -153 16 -153 28 0 10 79 4 145 -12z m-75 -47 c0 -5 -2 -10 -4 -10 -3
0 -8 5 -11 10 -3 6 -1 10 4 10 6 0 11 -4 11 -10z m940 -14 c0 -2 -7 -7 -16
-10 -8 -3 -12 -2 -9 4 6 10 25 14 25 6z m-1136 -22 c3 -9 3 -20 0 -25 -8 -13
-34 9 -34 27 0 19 26 18 34 -2z m1216 -20 c0 -34 -2 -36 -27 -31 -33 6 -55 -1
-46 -16 3 -6 1 -7 -5 -3 -8 4 -16 -3 -22 -19 -12 -31 -27 -47 -58 -64 -21 -11
-22 -11 -16 15 6 22 4 26 -9 21 -11 -4 -14 -2 -10 8 3 8 10 12 16 8 6 -4 7 -1
3 6 -5 7 -9 24 -11 38 l-3 26 18 -23 c13 -17 19 -20 25 -10 6 9 4 11 -6 6 -8
-4 -5 0 6 9 13 10 30 14 47 11 21 -4 31 0 43 17 8 12 15 16 15 8 0 -16 24 -9
26 7 4 38 14 28 14 -14z m-120 23 c0 -2 -10 -12 -22 -23 l-23 -19 19 23 c18
21 26 27 26 19z m-1023 -13 c-3 -3 -12 -4 -19 -1 -8 3 -5 6 6 6 11 1 17 -2 13
-5z m399 -9 c11 -28 -1 -37 -24 -17 -16 14 -19 22 -10 25 22 9 28 8 34 -8z
m372 3 c9 -1 9 -5 2 -12 -14 -14 -13 -23 4 -29 8 -3 13 1 12 10 0 9 7 17 16
18 10 2 15 -2 12 -10 -3 -7 0 -16 7 -21 8 -5 10 -3 4 7 -5 8 -4 11 1 6 5 -5 9
-12 9 -15 0 -20 49 -72 67 -72 31 0 16 -11 -22 -15 -18 -2 -40 -10 -49 -17
-15 -12 -15 -11 -1 6 14 18 13 19 -2 13 -15 -5 -16 -3 -7 20 9 24 8 25 -8 12
-9 -8 -14 -9 -11 -4 4 6 -1 19 -9 30 -14 19 -15 18 -10 -17 4 -25 1 -41 -8
-48 -8 -6 -11 -19 -8 -28 4 -14 3 -15 -5 -2 -8 10 -8 18 -1 27 15 18 7 64 -14
77 -13 8 -20 8 -26 -3 -6 -10 -11 -4 -16 20 -5 22 -4 34 4 37 6 2 9 8 6 12 -3
5 5 7 17 4 13 -3 29 -6 36 -6z m-244 -63 c-4 -8 -10 -15 -14 -15 -4 0 -13 -14
-20 -31 l-13 -31 -13 24 c-16 28 -17 41 -4 33 6 -4 22 1 36 9 19 13 23 23 19
44 -5 25 -5 25 4 4 6 -12 8 -29 5 -37z m-111 -4 c3 -12 -3 -27 -14 -37 -18
-16 -19 -16 -19 2 0 17 -3 16 -20 -6 l-19 -25 6 25 c6 22 39 59 54 60 4 0 9
-9 12 -19z m132 -35 c-15 -23 -42 -38 -33 -18 24 50 33 61 41 53 5 -5 2 -19
-8 -35z m-227 22 c-5 -13 -37 -20 -52 -10 -6 4 3 10 19 13 17 4 32 7 33 8 2 0
2 -4 0 -11z m366 -47 c-19 -46 -25 -50 -22 -18 1 15 6 27 10 27 4 0 8 12 8 28
0 20 3 23 9 13 6 -10 4 -27 -5 -50z m-756 22 c-3 -17 -38 -28 -38 -12 0 5 5 9
11 9 5 0 7 5 4 10 -3 6 1 10 10 10 10 0 15 -7 13 -17z m1022 -27 c0 -3 -4 -8
-10 -11 -5 -3 -10 -1 -10 4 0 6 5 11 10 11 6 0 10 -2 10 -4z m-84 -35 c0 -11
-6 -17 -13 -14 -6 3 -9 11 -6 19 7 20 19 17 19 -5z m194 16 c0 -2 -10 -12 -22
-23 l-23 -19 19 23 c18 21 26 27 26 19z m-111 -24 c-6 -7 -18 -13 -26 -13 -11
0 -11 3 -1 13 7 8 18 14 25 14 9 0 10 -4 2 -14z m177 -79 c-3 -9 -6 -36 -6
-60 0 -25 -5 -44 -11 -44 -7 0 -9 20 -6 58 6 68 4 62 18 62 6 0 8 -7 5 -16z
m-1022 -94 c60 -5 115 -10 123 -10 7 0 13 -9 13 -20 0 -24 -1 -24 -182 -8
-134 12 -138 13 -138 35 0 21 4 23 38 18 20 -3 86 -9 146 -15z m306 -50 c0 -5
-4 -10 -10 -10 -5 0 -10 5 -10 10 0 6 5 10 10 10 6 0 10 -4 10 -10z m47 -16
c-9 -9 -28 6 -21 18 4 6 10 6 17 -1 6 -6 8 -13 4 -17z m53 6 c0 -5 -7 -10 -15
-10 -8 0 -15 5 -15 10 0 6 7 10 15 10 8 0 15 -4 15 -10z m40 0 c0 -5 -2 -10
-4 -10 -3 0 -8 5 -11 10 -3 6 -1 10 4 10 6 0 11 -4 11 -10z m507 -46 c-3 -3
-12 -4 -19 -1 -8 3 -5 6 6 6 11 1 17 -2 13 -5z m-4 -21 c-7 -2 -19 -2 -25 0
-7 3 -2 5 12 5 14 0 19 -2 13 -5z m-1158 -13 c-28 -12 -37 -12 -30 0 3 6 16
10 28 9 21 0 21 -1 2 -9z m-55 -43 c10 -4 8 -6 -7 -6 -12 -1 -23 -6 -25 -11
-2 -7 -19 -8 -46 -4 -48 7 -49 18 -2 16 17 0 28 3 25 8 -6 10 28 19 35 9 3 -3
12 -9 20 -12z m-44 -45 c-3 -2 -30 0 -61 3 -31 4 -52 11 -46 15 11 6 114 -10
107 -18z m-116 -8 c0 -2 -12 -4 -27 -4 -21 0 -24 3 -14 9 13 8 41 5 41 -5z
m99 -10 c2 -2 -16 -4 -40 -4 -31 0 -40 3 -29 10 13 8 57 4 69 -6z m68 -10 c-3
-3 -12 -4 -19 -1 -8 3 -5 6 6 6 11 1 17 -2 13 -5z m378 -4 c3 -5 -1 -10 -10
-10 -9 0 -13 5 -10 10 3 6 8 10 10 10 2 0 7 -4 10 -10z m-715 -41 c0 -12 -30
-19 -78 -18 -46 1 -46 1 -20 13 30 13 98 17 98 5z m420 -1 c0 -5 -14 -8 -31
-8 -16 0 -28 4 -25 9 7 11 56 9 56 -1z m40 2 c-12 -8 -9 -10 13 -10 16 0 26
-4 23 -8 -6 -11 -66 -3 -66 8 0 9 17 18 35 19 6 0 3 -4 -5 -9z m103 -27 c-7
-2 -19 -2 -25 0 -7 3 -2 5 12 5 14 0 19 -2 13 -5z m192 -25 c7 -6 -4 -7 -30
-3 -22 4 -57 8 -78 10 -21 1 -41 6 -45 10 -11 11 141 -5 153 -17z m-482 -25
c-7 -2 -19 -2 -25 0 -7 3 -2 5 12 5 14 0 19 -2 13 -5z"/>
<path d="M1503 1093 c9 -2 23 -2 30 0 6 3 -1 5 -18 5 -16 0 -22 -2 -12 -5z"/>
<path d="M2111 884 c0 -11 3 -14 6 -6 3 7 2 16 -1 19 -3 4 -6 -2 -5 -13z"/>
<path d="M2388 1313 c5 -21 7 -23 10 -9 2 10 0 22 -6 28 -6 6 -7 0 -4 -19z"/>
<path d="M2400 1181 c0 -11 4 -22 9 -25 4 -3 6 6 3 19 -5 30 -12 33 -12 6z"/>
<path d="M2654 1078 l-19 -23 23 19 c12 11 22 21 22 23 0 8 -8 2 -26 -19z"/>
<path d="M2592 985 c-15 -32 -13 -38 9 -22 10 8 14 19 10 30 -6 17 -8 16 -19
-8z"/>
<path d="M670 887 c-3 -3 -79 -8 -170 -12 -91 -4 -176 -8 -190 -10 -14 -1 -33
-3 -42 -4 -14 -1 -18 -10 -18 -36 0 -31 3 -35 33 -39 77 -12 115 -12 156 0 25
7 47 11 51 9 8 -5 140 12 164 21 14 5 17 4 12 -4 -5 -8 0 -12 13 -12 16 0 21
-6 21 -25 0 -14 5 -25 10 -25 6 0 10 -7 10 -15 0 -12 7 -14 28 -9 37 10 40 17
38 93 l-2 66 -55 3 c-30 2 -57 1 -59 -1z"/>
<path d="M2509 746 c-29 -61 -36 -91 -21 -99 4 -2 23 -7 43 -11 l37 -6 16 71
c29 129 18 144 -34 44 -19 -36 -37 -65 -42 -65 -14 0 -9 15 25 71 24 40 29 56
19 56 -8 0 -27 -28 -43 -61z"/>
<path d="M375 730 c4 -6 -14 -9 -49 -8 -31 1 -56 -1 -57 -5 -3 -28 33 -39 87
-27 32 8 64 -3 64 -21 0 -6 9 -24 21 -40 11 -16 15 -29 9 -29 -6 0 -13 7 -16
15 -4 8 -11 15 -17 15 -6 0 2 -13 18 -30 16 -16 23 -30 17 -30 -7 0 -15 0 -19
0 -5 0 -8 4 -8 9 0 5 -4 13 -9 18 -5 4 -6 3 -2 -4 4 -8 -2 -11 -21 -9 -15 2
-29 8 -31 15 -2 6 -8 8 -13 5 -10 -6 32 -44 48 -44 5 0 18 -7 29 -16 16 -13
16 -15 2 -10 -10 3 -18 1 -18 -5 0 -7 -17 -8 -51 -4 -37 5 -50 4 -45 -4 4 -6
24 -11 44 -12 33 -1 34 -2 12 -9 -14 -4 -18 -9 -10 -10 8 -1 -10 -8 -40 -15
-38 -9 -46 -13 -27 -14 16 0 26 -4 24 -8 -3 -5 18 -8 47 -9 34 -1 44 1 31 7
-16 6 -17 8 -3 8 9 1 28 -3 42 -9 26 -10 69 -12 121 -6 17 1 51 4 77 4 38 2
46 5 42 17 -5 11 2 15 27 15 28 1 31 2 16 11 -9 6 -15 14 -12 20 4 5 -4 9 -17
10 -23 1 -23 1 2 9 l25 8 -27 1 c-15 1 -30 6 -34 13 -5 7 -2 9 9 5 12 -4 14
-2 10 10 -5 12 -3 14 8 8 12 -8 12 -6 1 8 -11 13 -17 14 -32 5 -10 -7 -17 -15
-14 -19 2 -4 -4 -6 -13 -4 -10 1 -23 -2 -30 -7 -6 -5 -14 -5 -16 0 -3 4 3 13
14 20 13 8 19 9 19 1 0 -6 16 8 35 31 19 23 35 45 35 48 -1 4 -16 -11 -35 -33
-34 -39 -39 -39 -36 -2 1 9 -3 17 -8 17 -6 0 -11 -6 -11 -12 0 -7 -7 -21 -14
-31 -12 -15 -13 -12 -8 29 6 54 -10 55 -24 2 l-8 -33 -3 38 c-3 27 -8 37 -18
34 -9 -4 -11 1 -8 16 4 18 3 19 -6 7 -5 -8 -8 -24 -5 -35 4 -16 0 -21 -15 -22
-23 -2 -51 31 -51 59 0 11 -5 15 -15 12 -8 -4 -15 -1 -15 4 0 6 12 9 27 6 23
-4 25 -3 13 11 -14 16 -75 22 -65 5z m133 -135 c-3 -3 -9 2 -12 12 -6 14 -5
15 5 6 7 -7 10 -15 7 -18z m-145 -132 c-7 -2 -21 -2 -30 0 -10 3 -4 5 12 5 17
0 24 -2 18 -5z"/>
<path d="M522 705 c0 -16 2 -22 5 -12 2 9 2 23 0 30 -3 6 -5 -1 -5 -18z"/>
<path d="M2438 713 c7 -3 16 -2 19 1 4 3 -2 6 -13 5 -11 0 -14 -3 -6 -6z"/>
<path d="M571 694 c0 -11 3 -14 6 -6 3 7 2 16 -1 19 -3 4 -6 -2 -5 -13z"/>
<path d="M190 499 c0 -18 2 -19 15 -5 8 8 15 17 15 20 0 3 -7 6 -15 6 -9 0
-15 -9 -15 -21z"/>
<path d="M113 468 c-18 -6 -33 -15 -33 -19 0 -13 11 -10 50 11 38 21 33 24
-17 8z"/>
<path d="M2688 453 c6 -2 18 -2 25 0 6 3 1 5 -13 5 -14 0 -19 -2 -12 -5z"/>
<path d="M905 340 c3 -5 8 -10 11 -10 2 0 4 5 4 10 0 6 -5 10 -11 10 -5 0 -7
-4 -4 -10z"/>
<path d="M2559 183 c-1 -5 -1 -11 0 -15 2 -15 -86 -30 -144 -25 -46 4 -53 3
-30 -4 38 -12 164 -6 189 8 12 7 17 17 13 27 -6 16 -26 22 -28 9z"/>
</g>
</svg>
